<svg width="48" height="48" viewBox="0 0 48 48" xmlns="http://www.w3.org/2000/svg"><title>grids-guides</title><g fill="none" fill-rule="evenodd"><path d="M24 48c23.815 0 24-10.745 24-24S47.815 0 24 0 0 10.745 0 24s.185 24 24 24z" fill="#33A7FF"/><path d="M32 30h5v2h-5v5h-2v-5h-5v5h-2v-5h-5v5h-2v-5h-5v-2h5v-5h-5v-2h5v-5h-5v-2h5v-5h2v5h5v-5h2v5h5v-5h2v5h5v2h-5v5h5v2h-5v5zm-2 0v-5h-5v5h5zm-7 0v-5h-5v5h5zm-5-7h5v-5h-5v5zm7 0h5v-5h-5v5zM11 9h26a2 2 0 0 1 2 2v26a2 2 0 0 1-2 2H11a2 2 0 0 1-2-2V11a2 2 0 0 1 2-2zm0 2v26h26V11H11z" fill="#0074CC" fill-rule="nonzero"/><path d="M18 16h12v-6a1 1 0 0 1 2 0v6h6a1 1 0 0 1 0 2h-6v12h6a1 1 0 0 1 0 2h-6v6a1 1 0 0 1-2 0v-6H18v6a1 1 0 0 1-2 0v-6h-6a1 1 0 0 1 0-2h6V18h-6a1 1 0 0 1 0-2h6v-6a1 1 0 0 1 2 0v6zm0 2v12h12V18H18z" fill="#FFF"/></g></svg>