<svg width="48" height="48" viewBox="0 0 48 48" xmlns="http://www.w3.org/2000/svg"><title>non-destructive</title><g fill="none" fill-rule="evenodd"><path d="M24 48c23.815 0 24-10.745 24-24S47.815 0 24 0 0 10.745 0 24s.185 24 24 24z" fill="#69DFC4"/><path fill="#FFF" d="M19 19H29V29H19z"/><path d="M19 19h-5.795c-1.115 0-1.519.116-1.926.334a2.272 2.272 0 0 0-.945.945c-.218.407-.334.811-.334 1.926v12.59c0 1.115.116 1.519.334 1.926.218.407.538.727.945.945.407.218.811.334 1.926.334h12.59c1.115 0 1.519-.116 1.926-.334.407-.218.727-.538.945-.945.218-.407.334-.811.334-1.926V29h5.795c1.115 0 1.519-.116 1.926-.334.407-.218.727-.538.945-.945.218-.407.334-.811.334-1.926v-12.59c0-1.115-.116-1.519-.334-1.926a2.272 2.272 0 0 0-.945-.945c-.407-.218-.811-.334-1.926-.334h-12.59c-1.115 0-1.519.116-1.926.334a2.272 2.272 0 0 0-.945.945c-.218.407-.334.811-.334 1.926V19zm0 0h6.795c1.115 0 1.519.116 1.926.334.407.218.727.538.945.945.218.407.334.811.334 1.926V29h-6.795c-1.115 0-1.519-.116-1.926-.334a2.272 2.272 0 0 1-.945-.945c-.218-.407-.334-.811-.334-1.926V19z" fill="#36AC91"/></g></svg>