<svg width="48" height="48" viewBox="0 0 48 48" xmlns="http://www.w3.org/2000/svg" xmlns:xlink="http://www.w3.org/1999/xlink"><title>icon-pixel-precision</title><defs><path d="M30.41 15h8.18a.41.41 0 0 1 .41.41v8.18a.41.41 0 0 1-.41.41h-8.18a.41.41 0 0 1-.41-.41v-8.18a.41.41 0 0 1 .41-.41z" id="a"/></defs><g fill="none" fill-rule="evenodd"><path d="M24 48c23.815 0 24-10.745 24-24S47.815 0 24 0 0 10.745 0 24s.185 24 24 24z" fill="#8A8E93"/><path d="M23.001 37v1a1 1 0 0 1-1 1h-7a1 1 0 0 1-1-1v-1.268a2 2 0 0 0 1-1.732v-9a2 2 0 0 0-1-1.732V14h-4.19a.5.5 0 0 1-.448-.724l.535-1.07a.5.5 0 0 1 .326-.262L14.001 11v-1a1 1 0 0 1 1-1h9.538l9.26 4.042a.5.5 0 0 1-.2.958H23.002v10a2 2 0 0 0-2 2v9a2 2 0 0 0 2 2zm-1-2v-9a1 1 0 0 1 1-1H34.27a.5.5 0 0 1 .196.96L25.001 30v5a1 1 0 0 1-1 1h-1a1 1 0 0 1-1-1zm-8 0a1 1 0 0 1-2 0v-7.5l-1.777-.444a.5.5 0 0 1-.326-.262l-.535-1.07A.5.5 0 0 1 9.81 25h3.191a1 1 0 0 1 1 1v9zm4-7a1 1 0 1 0 0-2 1 1 0 0 0 0 2zm0 3a1 1 0 1 0 0-2 1 1 0 0 0 0 2zm0 3a1 1 0 1 0 0-2 1 1 0 0 0 0 2zm0 3a1 1 0 1 0 0-2 1 1 0 0 0 0 2zm0-12a1 1 0 1 0 0-2 1 1 0 0 0 0 2zm0-3a1 1 0 1 0 0-2 1 1 0 0 0 0 2zm0-3a1 1 0 1 0 0-2 1 1 0 0 0 0 2zm0-3a1 1 0 1 0 0-2 1 1 0 0 0 0 2z" fill="#575B60"/><use stroke="#FFF" stroke-width="2" xlink:href="#a"/></g></svg>