<svg width="48" height="48" viewBox="0 0 48 48" xmlns="http://www.w3.org/2000/svg"><title>icon-toolkit</title><g fill="none"><path d="M24 48c23.815 0 24-10.745 24-24S47.815 0 24 0 0 10.745 0 24s.185 24 24 24z" fill="#F8C332"/><path d="M20 14a1 1 0 0 0-1 1v4a1 1 0 0 0 1 1h8a1 1 0 0 0 1-1v-4a1 1 0 0 0-1-1h-8zm0-2h8a3 3 0 0 1 3 3v4a3 3 0 0 1-3 3h-8a3 3 0 0 1-3-3v-4a3 3 0 0 1 3-3z" fill="#C59000"/><g transform="translate(9 16)"><path d="M1.5 0h27A1.5 1.5 0 0 1 30 1.5v4a.5.5 0 0 1-.5.5H.5a.5.5 0 0 1-.5-.5v-4A1.5 1.5 0 0 1 1.5 0z" fill="#F8C332"/><path d="M1.5 0h27A1.5 1.5 0 0 1 30 1.5v4a.5.5 0 0 1-.5.5H.5a.5.5 0 0 1-.5-.5v-4A1.5 1.5 0 0 1 1.5 0z" fill="#FFF" fill-opacity=".5"/></g><path d="M10 22h28v12.5a1.5 1.5 0 0 1-1.5 1.5h-25a1.5 1.5 0 0 1-1.5-1.5V22z" fill="#C59000"/><rect fill="#FFF" x="15" y="20" width="4" height="5" rx=".5"/><rect fill="#FFF" x="29" y="20" width="4" height="5" rx=".5"/></g></svg>