<svg width="48" height="48" viewBox="0 0 48 48" xmlns="http://www.w3.org/2000/svg"><title>vector-editing</title><g fill="none" fill-rule="evenodd"><path d="M24 48c23.815 0 24-10.745 24-24S47.815 0 24 0 0 10.745 0 24s.185 24 24 24z" fill="#8ADC33"/><path d="M21.013 18.278C13.603 19.678 8 26.184 8 34h32c0-7.816-5.604-14.322-13.013-15.722a3 3 0 0 1-5.974 0z" fill="#57A900"/><path fill="#FFF" d="M13 17H21V19H13z"/><path fill="#FFF" d="M27 17H35V19H27z"/><rect stroke="#FFF" stroke-width="2" x="11" y="17" width="2" height="2" rx=".5"/><rect fill="#FFF" x="34" y="16" width="4" height="4" rx=".5"/><path d="M24 20a2 2 0 1 0 0-4 2 2 0 0 0 0 4zm0 2a4 4 0 1 1 0-8 4 4 0 0 1 0 8z" fill="#FFF" fill-rule="nonzero"/></g></svg>