<svg width="48" height="48" viewBox="0 0 48 48" xmlns="http://www.w3.org/2000/svg"><title>code-exports</title><g fill="none" fill-rule="evenodd"><path d="M24 48c23.815 0 24-10.745 24-24S47.815 0 24 0 0 10.745 0 24s.185 24 24 24z" fill="#815EFF"/><path d="M11 9h18.5c1 0 1.833.333 2.5 1l6 6.023c.667.651 1 1.477 1 2.477V37a2 2 0 0 1-2 2H11a2 2 0 0 1-2-2V11a2 2 0 0 1 2-2z" fill="#4E2BCC"/><path d="M29.5 9c1 0 1.833.333 2.5 1l6 6c1 1 1 1.5 1 2.5 0-.5-.5-1.5-2-1.5h-4a2 2 0 0 1-2-2v-4c0-1.5-.5-2-1.5-2z" fill="#A086FF"/><path d="M17.5 20.5L14 24l3.5 3.5M26 18l-4 12 4-12zm4.5 2.5L34 24l-3.5 3.5" stroke="#FFF" stroke-width="2" stroke-linecap="round" stroke-linejoin="round"/></g></svg>