<?xml version="1.0" encoding="UTF-8" standalone="no"?>
<svg
   xmlns:dc="http://purl.org/dc/elements/1.1/"
   xmlns:cc="http://creativecommons.org/ns#"
   xmlns:rdf="http://www.w3.org/1999/02/22-rdf-syntax-ns#"
   xmlns:svg="http://www.w3.org/2000/svg"
   xmlns="http://www.w3.org/2000/svg"
   xmlns:sodipodi="http://sodipodi.sourceforge.net/DTD/sodipodi-0.dtd"
   xmlns:inkscape="http://www.inkscape.org/namespaces/inkscape"
   width="128"
   height="33"
   viewBox="0 0 128 33"
   version="1.1"
   id="svg57"
   sodipodi:docname="efdm-logo.svg"
   inkscape:version="0.92.4 (33fec40, 2019-01-16)">
  <metadata
     id="metadata61">
    <rdf:RDF>
      <cc:Work
         rdf:about="">
        <dc:format>image/svg+xml</dc:format>
        <dc:type
           rdf:resource="http://purl.org/dc/dcmitype/StillImage" />
        <dc:title>logo</dc:title>
      </cc:Work>
    </rdf:RDF>
  </metadata>
  <sodipodi:namedview
     pagecolor="#ffffff"
     bordercolor="#666666"
     borderopacity="1"
     objecttolerance="10"
     gridtolerance="10"
     guidetolerance="10"
     inkscape:pageopacity="0"
     inkscape:pageshadow="2"
     inkscape:window-width="1920"
     inkscape:window-height="1008"
     id="namedview59"
     showgrid="false"
     inkscape:zoom="6.1519797"
     inkscape:cx="59.455054"
     inkscape:cy="12.516543"
     inkscape:window-x="0"
     inkscape:window-y="0"
     inkscape:window-maximized="1"
     inkscape:current-layer="logo" />
  <!-- Generator: Sketch 50.2 (55047) - http://www.bohemiancoding.com/sketch -->
  <title
     id="title2">logo</title>
  <desc
     id="desc4">Created with Sketch.</desc>
  <defs
     id="defs27">
    <path
       d="M 0.386,10.7295 V 1.7205 C 0.386,1.011 0.947,0.45 1.6565,0.45 h 3.234 c 3.63,0 6.138,2.4915 6.138,5.742 V 6.225 C 11.0285,9.4755 8.5205,12 4.8905,12 H 1.6565 C 0.947,12 0.386,11.439 0.386,10.7295 Z M 2.927,9.7065 H 4.8905 C 6.9695,9.7065 8.372,8.304 8.372,6.258 V 6.225 C 8.372,4.179 6.9695,2.7435 4.8905,2.7435 H 2.927 Z M 14.5595,12 C 13.85,12 13.289,11.439 13.289,10.7295 V 1.7205 C 13.289,1.011 13.85,0.45 14.5595,0.45 h 6.402 c 0.627,0 1.1385,0.5115 1.1385,1.1385 0,0.627 -0.5115,1.122 -1.1385,1.122 h -5.148 v 2.343 h 4.4055 c 0.627,0 1.1385,0.5115 1.1385,1.1385 0,0.627 -0.5115,1.122 -1.1385,1.122 h -4.4055 v 2.4255 h 5.2305 c 0.627,0 1.1385,0.5115 1.1385,1.1385 0,0.627 -0.5115,1.122 -1.1385,1.122 z m 14.3055,0.1815 c -0.693,0 -1.1715,-0.3795 -1.4355,-1.0065 L 23.684,2.2155 c -0.0825,-0.198 -0.1485,-0.396 -0.1485,-0.6105 0,-0.7095 0.561,-1.254 1.2705,-1.254 0.66,0 1.089,0.3795 1.287,0.891 l 2.8875,7.4745 2.9205,-7.557 C 32.066,0.747 32.5115,0.351 33.122,0.351 c 0.693,0 1.254,0.528 1.254,1.221 0,0.198 -0.066,0.4125 -0.132,0.561 l -3.7785,9.042 c -0.264,0.627 -0.7425,1.0065 -1.4355,1.0065 z m 7.458,-1.452 V 1.7205 C 36.323,1.011 36.884,0.45 37.5935,0.45 h 3.234 c 3.63,0 6.138,2.4915 6.138,5.742 v 0.033 c 0,3.2505 -2.508,5.775 -6.138,5.775 h -3.234 C 36.884,12 36.323,11.439 36.323,10.7295 Z m 2.541,-1.023 h 1.9635 c 2.079,0 3.4815,-1.4025 3.4815,-3.4485 V 6.225 c 0,-2.046 -1.4025,-3.4815 -3.4815,-3.4815 H 38.864 Z m 15.972,2.4915 c -3.564,0 -6.1215,-2.6565 -6.1215,-5.94 V 6.225 c 0,-3.2835 2.5905,-5.973 6.1545,-5.973 3.564,0 6.1215,2.6565 6.1215,5.94 v 0.033 c 0,3.2835 -2.5905,5.973 -6.1545,5.973 z m 0.033,-2.343 c 2.046,0 3.465,-1.617 3.465,-3.597 V 6.225 c 0,-1.98 -1.452,-3.63 -3.498,-3.63 -2.046,0 -3.465,1.617 -3.465,3.597 v 0.033 c 0,1.98 1.452,3.63 3.498,3.63 z m 10.5105,2.31 c -1.32,0 -2.3265,-0.4455 -3.0525,-1.0065 -0.264,-0.198 -0.4785,-0.5775 -0.4785,-0.9735 0,-0.6765 0.528,-1.221 1.2045,-1.221 0.3135,0 0.5115,0.0825 0.759,0.264 0.5115,0.3795 0.957,0.5775 1.5345,0.5775 0.99,0 1.584,-0.5775 1.584,-1.914 v -6.27 c 0,-0.7095 0.561,-1.2705 1.2705,-1.2705 0.7095,0 1.2705,0.561 1.2705,1.2705 V 8.007 c 0,1.3695 -0.396,2.3925 -1.089,3.0855 -0.7095,0.7095 -1.749,1.0725 -3.003,1.0725 z m 14.9325,0.033 c -3.564,0 -6.1215,-2.6565 -6.1215,-5.94 V 6.225 c 0,-3.2835 2.5905,-5.973 6.1545,-5.973 3.564,0 6.1215,2.6565 6.1215,5.94 v 0.033 c 0,3.2835 -2.5905,5.973 -6.1545,5.973 z m 0.033,-2.343 c 2.046,0 3.465,-1.617 3.465,-3.597 V 6.225 c 0,-1.98 -1.452,-3.63 -3.498,-3.63 -2.046,0 -3.465,1.617 -3.465,3.597 v 0.033 c 0,1.98 1.452,3.63 3.498,3.63 z"
       id="path-1"
       inkscape:connector-curvature="0" />
    <linearGradient
       x1="0.26717997"
       y1="0.25927508"
       x2="1.0837389"
       y2="0.84300005"
       id="linearGradient-2">
      <stop
         stop-color="#FFFFFF"
         offset="0%"
         id="stop7" />
      <stop
         stop-color="#EEEEEE"
         offset="100%"
         id="stop9" />
    </linearGradient>
    <linearGradient
       x1="0.77999884"
       y1="0.77444768"
       x2="-0.084381208"
       y2="0.15653743"
       id="linearGradient-3">
      <stop
         stop-color="#FFFFFF"
         offset="0%"
         id="stop12" />
      <stop
         stop-color="#EEEEEE"
         offset="100%"
         id="stop14" />
    </linearGradient>
    <linearGradient
       x1="9.7456312"
       y1="0.54556382"
       x2="4.1702924"
       y2="4.7327819"
       id="linearGradient-4"
       gradientTransform="scale(0.85884439,1.1643553)"
       gradientUnits="userSpaceOnUse">
      <stop
         stop-color="#FFFFFF"
         offset="0%"
         id="stop17" />
      <stop
         stop-color="#D1D1D1"
         offset="100%"
         id="stop19" />
    </linearGradient>
    <linearGradient
       x1="0.82523966"
       y1="11.364896"
       x2="6.2866039"
       y2="7.2632766"
       id="linearGradient-5"
       gradientTransform="scale(0.85884442,1.1643552)"
       gradientUnits="userSpaceOnUse">
      <stop
         stop-color="#FFFFFF"
         offset="0%"
         id="stop22" />
      <stop
         stop-color="#D1D1D1"
         offset="100%"
         id="stop24" />
    </linearGradient>
  </defs>
  <g
     id="Page-1"
     style="fill:none;fill-rule:evenodd;stroke:none;stroke-width:1">
    <g
       id="logo">
      <g
         id="DEVDOJO"
         transform="translate(41,11)" />
      <text
         xml:space="preserve"
         style="font-style:normal;font-weight:normal;font-size:40px;line-height:1.25;font-family:sans-serif;letter-spacing:0px;word-spacing:0px;fill:#000000;fill-opacity:1;stroke:none"
         x="53.217346"
         y="25.035084"
         id="text5234"><tspan
           sodipodi:role="line"
           id="tspan5232"
           x="53.217346"
           y="25.035084"
           style="font-style:normal;font-variant:normal;font-weight:bold;font-stretch:normal;font-size:24px;line-height:1.25;font-family:'Blanco Extra Bold';-inkscape-font-specification:'Blanco Extra Bold, Bold';fill:#161f2b;fill-opacity:1">EFDM</tspan></text>
      <path
         style="fill:#29b2fe;stroke-width:0.47736832"
         id="path61"
         d="m 6.7815666,23.08738 4.5388764,3.089549 C 7.5939726,26.243239 2.8231306,31.045347 0.25109015,25.876828 M 42.121764,6.8457949 C 52.957955,10.234096 36.34842,12.483226 33.461748,15.301942 l -5.72123,-5.089547 M 6.7815666,21.807064 11.050748,17.28748 11.347803,24.88915 M 6.7815666,4.2371234 10.266583,5.8602549 10.850432,14.80614 M 24.852054,9.0262959 11.937026,15.635431 10.850432,-3.5576437 M 25.670908,9.7958849 32.69566,16.038882 25.624494,22.925533 12.45394,25.062658 12.005427,16.67041"
         inkscape:connector-curvature="0"
         sodipodi:nodetypes="cccccccccccccccccccc" />
      <ellipse
         style="fill:#161f2b;fill-opacity:1"
         id="path275"
         cx="17.067675"
         cy="23.914783"
         rx="2.4382396"
         ry="2.3569648" />
    </g>
  </g>
</svg>
