<svg width="48" height="48" viewBox="0 0 48 48" xmlns="http://www.w3.org/2000/svg"><title>Icon Copy</title><g fill="none" fill-rule="evenodd"><path d="M24 48c24 0 24-10.745 24-24S48 0 24 0 0 10.745 0 24s0 24 24 24z" fill="#FB8332"/><path d="M30.5 15.5c-3.667 0-5.5 3-5.5 9s-1.833 9-5.5 9" stroke="#C85000" stroke-width="3"/><path d="M15.5 38a4.5 4.5 0 1 1 0-9 4.5 4.5 0 0 1 0 9zm0-2.5a2 2 0 1 0 0-4 2 2 0 0 0 0 4zm15.254-24.603l7.082 4.171a.5.5 0 0 1 0 .862l-7.082 4.172a.5.5 0 0 1-.754-.43v-8.344a.5.5 0 0 1 .754-.43z" fill="#FFF"/></g></svg>