<svg width="48" height="48" viewBox="0 0 48 48" xmlns="http://www.w3.org/2000/svg"><title>export-presets</title><g fill="none" fill-rule="evenodd"><path d="M24 48c23.815 0 24-10.745 24-24S47.815 0 24 0 0 10.745 0 24s.185 24 24 24z" fill="#5BD0FF"/><path d="M10 23h28a1 1 0 0 1 0 2H10a1 1 0 0 1 0-2zm0-8h28a1 1 0 0 1 0 2H10a1 1 0 0 1 0-2zm0 16h28a1 1 0 0 1 0 2H10a1 1 0 0 1 0-2z" fill="#289DCC"/><circle fill="#FFF" cx="17" cy="16" r="4"/><circle fill="#FFF" cx="31" cy="24" r="4"/><circle fill="#FFF" cx="17" cy="32" r="4"/></g></svg>